<svg xmlns="http://www.w3.org/2000/svg" viewBox="0 0 2506.76 830.05"><defs><style>.cls-1{font-size:267.64px;font-family:AnkoPersonalUse-Bold, Anko Personal Use;font-weight:700;letter-spacing:-0.01em;}.cls-1,.cls-3{stroke:#000;stroke-miterlimit:10;}.cls-2{letter-spacing:0.01em;}.cls-3{fill:none;stroke-width:18.27px;}</style></defs><title>logoss_</title><g id="PRINT"><text class="cls-1" transform="translate(927.18 496.25)">CL<tspan class="cls-2" x="340.97" y="0">ARISCO</tspan></text><polygon id="brder" class="cls-3" points="814.82 247.52 814.82 247.52 814.82 247.52 814.82 247.52 521.49 84.69 224 248.66 224 248.66 224 575.14 522.03 745.37 522.03 745.37 814.82 573.51 814.82 247.52"/><g id="middle"><polygon points="547.25 390.98 518.58 405.96 489.28 391.23 518.59 373.96 547.25 390.98"/><polygon points="550.91 394.31 550.91 427.51 521.52 442.55 521.52 411.06 550.91 394.31"/><polygon points="517.16 411.06 517.16 442.55 486.24 427.51 486.24 394.31 517.16 411.06"/></g><polygon points="605.93 364.32 605.93 472.54 521.59 521.89 521.59 594.42 670.54 520.97 670.54 329.86 605.93 364.32"/><polygon points="366.6 329.86 366.6 520.97 515.56 594.42 515.56 521.9 431.24 472.58 431.24 364.34 366.6 329.86"/><polygon id="side" points="680.17 524.41 814.06 573.51 814.06 247.52 680.17 324.02 680.17 524.41"/><polygon points="527.8 244.78 368.92 326.89 431.28 358.97 518.68 315.68 601.69 359.47 601.7 359.47 665.26 325.39 527.8 244.78"/></g></svg>